<svg width="46" height="50" viewBox="0 0 46 50" fill="none" xmlns="http://www.w3.org/2000/svg">
<path d="M36.9121 4.75008C37.5449 4.5843 38.0923 4.07142 38.5874 3.60746C39.0657 3.15936 39.4952 2.75689 39.906 2.75689C39.8816 2.75689 39.6893 2.94404 39.4125 3.21355C38.4836 4.11784 36.6022 5.94937 36.9121 4.75008Z" fill="white"/>
<path fill-rule="evenodd" clip-rule="evenodd" d="M20.6813 47.7071V50L25.3129 49.9796V47.71L29.7607 47.3288V49.6508L34.4555 48.9408V46.5374L39.0928 45.2251L39.1215 47.7682C39.3112 47.8468 44.7846 45.8274 46 44.3259V19.6132C44.6755 18.9003 43.2187 18.1642 41.8712 17.6171L40.4116 19.7471L40.5208 17.0963C40.3562 17.0267 40.206 16.963 40.0683 16.9045C38.7419 16.3416 38.5627 16.2656 37.6361 16.1681L36.8 17.0148V15.8713C35.8368 15.5593 33.081 15.0362 31.4302 14.7228C30.7715 14.5977 30.2887 14.5061 30.1658 14.4746C30.5916 14.4023 30.8573 14.2531 31.0791 14.1285C31.447 13.9218 31.6945 13.7828 32.3523 14.1749C32.7001 14.2768 33.0263 14.2841 33.3456 14.2914C33.9654 14.3054 34.5591 14.3188 35.2341 15.0216C35.3514 14.9044 35.467 14.5514 35.5658 14.2497C35.651 13.9895 35.7237 13.7675 35.7743 13.7675C36.4468 14.7839 37.3173 14.9476 38.1446 15.1031C38.9397 15.2526 39.6949 15.3945 40.1961 16.2786C40.5403 16.0161 40.4704 15.2322 40.4282 14.7596C40.4176 14.6403 40.4087 14.5408 40.4087 14.4746C42.9766 15.8584 43.1102 15.4427 44.0011 12.6696L44.0261 12.5919C45.1519 12.0044 45.3077 13.0804 45.4801 14.271C45.581 14.9675 45.6875 15.7031 45.9971 16.1681V8.00322C45.6339 8.52082 45.3238 8.43907 44.9226 8.33333C44.5209 8.22744 44.028 8.09751 43.2992 8.52116C43.9485 7.78208 44.1353 6.63563 43.9485 5.16038C43.9485 3.57746 45.0834 3.27774 46 5.05271V0.0246202C44.3395 -0.0660824 44.1533 0.0765913 43.2837 0.74321C43.1212 0.867851 42.9347 1.01081 42.7102 1.17398C41.9804 1.06341 42.3855 0.437808 42.7102 0.0246202C41.1414 0.135192 40.3053 0.245764 39.2824 1.06341C38.7032 1.06341 38.261 0.821012 37.8353 0.587659C36.9517 0.103314 36.1392 -0.342062 34.3204 1.49988C33.9683 1.49988 33.6315 0.880221 33.3461 0.355115C33.2822 0.237537 33.2209 0.1247 33.1625 0.0246202L25.8272 0.135192L26.2295 6.30683L28.2005 4.75009C28.2012 4.75028 28.202 4.75046 28.2027 4.75065L28.2034 4.75008C28.2833 4.77045 28.3723 4.78707 28.465 4.80438C28.8754 4.881 29.3579 4.9711 29.4446 5.46008L26.4795 7.88683L26.4792 7.88473L26.4766 7.88684H26.3415L26.4766 8.40768V8.30002L29.6543 5.89654L29.6544 6.30682L26.4766 8.73357L26.5628 11.1429L26.6708 11.2186L26.6662 11.14L28.9332 12.8043C28.9332 12.8046 28.9331 12.8049 28.9331 12.8052L28.936 12.8073C28.8556 13.654 28.6372 13.8722 28.3154 14.1749L26.7783 13.0255V13.472C26.7804 13.4993 26.7825 13.5256 26.7846 13.551L28.0224 14.4717C28.0224 14.4717 27.8789 14.6132 27.7254 14.6121C27.6874 14.6122 27.6488 14.6037 27.6115 14.5822L26.8846 14.0663V14.4687L27.1834 15.2049L26.5628 16.1622C25.8923 12.0267 25.6401 8.11079 25.3944 4.29704C25.3042 2.89695 25.2148 1.51063 25.1061 0.132284H21.1956C21.1643 0.680898 21.1338 1.23077 21.1033 1.78228C20.8479 6.39068 20.5862 11.1128 19.7676 16.1622L19.3367 15.1264L19.5522 14.4687L19.6613 13.9508H19.5522L18.9287 14.5793C18.9127 14.5793 18.8979 14.5793 18.8839 14.5793C18.6809 14.5792 18.6773 14.5766 18.6154 14.5323C18.5938 14.5168 18.5649 14.4962 18.5178 14.4687L18.567 14.4334L19.6613 13.5434V13.0226L18.2017 14.0614C18.2014 14.0613 18.201 14.0612 18.2006 14.061L18.196 14.0643C17.7938 13.9537 17.7938 13.4329 17.7938 12.8043L19.7619 11.3291L19.7618 11.3305L19.7676 11.3262V11.2476L19.8481 10.2903H19.8455L19.8453 10.2932C19.598 10.3373 19.3512 10.3291 19.1043 10.2843C18.9278 10.2664 18.7732 10.2109 18.5914 10.1458C18.5278 10.123 18.4609 10.099 18.3885 10.075C18.3823 10.0685 18.3753 10.0625 18.3676 10.0569C18.3222 10.0381 18.2769 10.0186 18.2315 9.99844C18.2242 9.99615 18.2167 9.99386 18.2093 9.99156C18.128 9.96652 18.0409 9.93968 17.9834 9.88293L17.6777 9.63484C17.6614 9.62383 17.645 9.61274 17.6283 9.60156C17.3707 9.42824 17.0773 9.2309 16.8571 8.92562L16.7479 8.81796V8.78529C16.734 8.76818 16.7203 8.75094 16.7068 8.73358H16.6675V8.68215C16.6475 8.65559 16.628 8.62875 16.609 8.60163C16.5632 8.59849 16.5612 8.58547 16.5612 8.53166C16.535 8.49235 16.5099 8.45247 16.4856 8.41203C16.4266 8.40739 16.4261 8.38811 16.4261 8.30797C16.4067 8.27239 16.3881 8.2364 16.3702 8.2C16.3623 8.19699 16.3532 8.19527 16.3428 8.19527V8.14229C16.3225 8.09846 16.3035 8.05404 16.2856 8.00905H16.2365C16.2365 7.93154 16.2234 7.8544 16.2065 7.77874C16.1865 7.71026 16.1695 7.64056 16.1554 7.56967H16.1302V7.41789C16.1281 7.40258 16.1262 7.38721 16.1244 7.37179C16.1263 7.37767 16.1282 7.38356 16.1302 7.38947V7.38054C16.1302 7.38359 16.1302 7.38665 16.1303 7.38971C16.1497 7.44853 16.1739 7.50864 16.2024 7.56967H16.2365V7.63923C16.2617 7.68834 16.2895 7.73796 16.3197 7.7879H16.3428V7.82534C16.4033 7.92185 16.4726 8.01939 16.5491 8.1167H16.5611V8.13188C16.5869 8.16424 16.6134 8.19656 16.6406 8.2288C16.6427 8.231 16.6447 8.23335 16.6466 8.23585C16.7543 8.36275 16.8735 8.48834 17.0008 8.60976C17.174 8.758 17.3648 8.91118 17.5569 9.06539C17.5912 9.09293 17.6256 9.1205 17.6598 9.14808C17.7637 9.22033 17.869 9.28807 17.9746 9.35026C17.9866 9.35465 17.9979 9.3613 18.0108 9.37135C18.0597 9.39959 18.1087 9.4266 18.1575 9.45229H18.2017C18.2245 9.47468 18.2458 9.49242 18.2666 9.50746C18.7531 9.74398 19.2205 9.84013 19.5471 9.69063C19.5493 9.67871 19.5493 9.67052 19.5493 9.67052H19.5875C19.6514 9.63591 19.7094 9.59095 19.7603 9.53478C19.7648 9.51419 19.7648 9.48976 19.7648 9.45229H19.8245C19.8316 9.44164 19.8385 9.43069 19.8452 9.41944V9.26316H19.9186C19.9321 9.22574 19.9441 9.18599 19.9544 9.14385L19.9431 9.26316H19.9601V8.82378L19.9544 8.81956V8.82086L19.2265 8.28159L17.153 6.74911C17.153 6.74786 17.153 6.74662 17.153 6.74538L17.1502 6.74328C17.1502 6.68976 17.1453 6.63624 17.1408 6.58593C17.1268 6.43116 17.1156 6.30682 17.2565 6.30682L19.9544 8.40767V8.41129L19.9573 8.4135L20.0636 7.89265L17.3944 5.90236C17.3945 5.90125 17.3947 5.90014 17.3949 5.89903L17.3915 5.89654C17.4691 5.37569 18.0897 4.93922 18.604 5.04979L20.1671 6.19625L20.1668 6.19982L20.1699 6.20207L20.575 0.0275339H13.9695L12.6191 1.8025C12.1509 1.71288 11.8784 1.39615 11.5852 1.05525C10.8977 0.256069 10.0959 -0.675911 6.39001 0.874274C2.99388 2.12839 1.75266 0.653131 2.15778 0.0246202L0 0.135192V7.77917C1.24259 4.28164 2.53126 5.55243 3.83696 6.84002C4.48765 7.48168 5.14257 8.12751 5.79812 8.18945C5.18715 8.54573 4.6855 9.34796 4.19494 10.1325C3.10293 11.8788 2.06584 13.5373 0 9.99351V17.751C1.17824 14.2015 3.19174 14.773 5.1985 15.3426C6.86683 15.8161 8.5305 16.2883 9.70569 14.3902C9.84808 14.0673 9.96395 13.6241 10.0766 13.1934C10.2207 12.642 10.3595 12.111 10.5418 11.879C10.8665 14.3873 14.3718 15.8683 15.2854 12.9149C15.5038 13.5463 16.1244 14.1719 16.745 14.4717C16.5889 14.4953 16.3389 14.5287 16.0332 14.5695C14.9103 14.7195 13.0352 14.97 12.2944 15.2078L12.1048 15.8683L11.4842 15.3213C11.1392 15.4106 10.7699 15.5025 10.3936 15.5961C9.5072 15.8167 8.58207 16.0469 7.84385 16.2757L6.60262 19.9362L4.84997 17.3145C3.28982 17.8353 1.3188 18.9003 0 19.8286V44.1048C0.833229 45.3589 4.96202 47.2444 6.82099 47.6809V45.3356L11.2946 46.5054V48.8594L16.0727 49.5403V47.355L20.6813 47.7071ZM5.47346 26.5443V29.2475L6.92729 28.8343L5.47346 26.5443ZM8.78914 26.4366L7.95016 28.619L10.0304 28.0196L8.78914 26.4366ZM12.8059 25.2873V27.2834L13.9666 26.9546L12.8059 25.2873ZM19.3309 19.008L16.5554 19.1971V24.9614C17.9323 22.9018 18.2754 21.9376 18.8175 20.414C18.9655 19.9982 19.1282 19.5408 19.3309 19.008ZM29.5796 19.1971C28.7435 19.0865 27.8011 19.008 27.1805 19.008C27.2571 19.2784 27.3241 19.5233 27.3863 19.7502C27.8256 21.3544 28.019 22.0605 29.5796 24.5511V19.1971ZM34.0015 24.7432L33.1683 26.8469L36.2972 27.6966V25.4852L37.0212 24.1466C35.9461 23.297 35.9867 22.2547 36.047 20.7035C36.0623 20.3104 36.0788 19.8847 36.0788 19.4212L35.4611 20.3465L34.0015 20.0439V24.7432ZM16.0152 35.5297H6.82099C9.30056 36.8944 15.8256 38.777 18.604 38.7741L16.0152 35.5297ZM27.6115 38.969C28.528 39.1873 37.4264 37.2174 39.3974 35.6374H30.0652L27.6115 38.969ZM17.7966 33.4579L23.0517 40.552L28.6401 33.5685L43.7417 33.4608V31.4618L32.2517 28.3222C25.2015 25.6673 24.7101 13.5487 24.3552 4.79556C24.3044 3.54278 24.2564 2.35893 24.1924 1.28165H22.2185C22.2013 1.46506 22.1848 1.65157 22.169 1.84097C22.0688 3.03847 21.9938 4.352 21.9182 5.73439C21.9101 5.88257 21.9019 6.03155 21.8938 6.18127C21.4254 14.7768 20.8255 25.7884 14.05 28.2116C14.05 28.2116 14.05 28.2116 14.05 28.2116L2.15778 31.5695V33.4579H17.7966ZM31.1197 24.0332V17.8324L28.3126 17.4192V15.8654L28.3858 15.8743C30.841 16.171 33.2993 16.4681 35.7829 17.0904V18.7839L33.085 18.1554C33.0745 18.1554 33.066 18.1533 33.0593 18.1558C33.0318 18.1658 33.0318 18.2526 33.0318 18.8716C33.0318 19.6431 33.0318 21.2414 32.9787 24.5482C32.4644 24.5511 31.5191 24.33 31.1197 24.0332ZM1.85899 2.32042C3.16513 3.40059 4.758 2.86411 6.40011 2.31105C8.28357 1.6767 10.2318 1.02053 11.8865 2.75689L11.1567 3.71421C10.1625 2.41131 9.05055 2.85634 7.75579 3.37452C6.63317 3.82381 5.37316 4.32809 3.93344 3.79568C4.82045 5.43445 6.67661 4.83604 8.22831 4.3358C9.36567 3.96913 10.3395 3.65519 10.6481 4.31362L9.40691 6.00711L10.0275 6.52796C6.82102 7.26122 2.99391 7.04299 1.85899 2.32042ZM4.85 4.20305C5.6921 4.53653 6.66273 4.14215 7.60805 3.75805C8.74956 3.29425 9.85417 2.84543 10.651 3.7113C9.66371 3.23323 8.54882 3.65243 7.51216 4.04221C6.47924 4.43058 5.52398 4.78976 4.85 4.20305ZM13.642 8.0003L10.8665 6.00421L14.5844 1.27872H19.1155L13.642 8.0003ZM1.75268 13.0255C3.27087 13.1608 4.11037 11.9202 5.01068 10.5899C6.12434 8.94425 7.33104 7.16114 10.0304 7.67441C8.68135 7.61906 7.93271 8.93291 7.16935 10.2726C6.40769 11.6093 5.63138 12.9717 4.22939 13.0255C6.08968 13.2716 7.04641 11.9255 7.98548 10.6043C9.03342 9.12982 10.0594 7.68633 12.2945 8.52116C10.6404 8.63527 10.0076 10.0276 9.36706 11.437C8.3253 13.7293 7.26291 16.067 1.75268 13.0255ZM6.0941 12.1758C6.62863 11.795 7.03577 11.0998 7.45503 10.384C8.17609 9.15283 8.93301 7.86047 10.4355 8.0003C9.01071 8.47072 8.23559 9.63924 7.57961 10.6281C7.09135 11.3642 6.66911 12.0008 6.0941 12.1758ZM12.7255 13.5434C10.8665 13.5434 10.3263 10.1856 12.1853 9.03619C14.212 7.95565 15.3878 8.90723 16.4853 9.79537C17.2999 10.4546 18.0713 11.0789 19.1155 10.8111L17.1473 12.4785V13.2175C16.2646 13.4054 15.8569 12.486 15.4319 11.5275C14.8692 10.2585 14.2761 8.92098 12.51 9.9935C13.7512 9.88584 14.3689 9.9935 14.8804 11.1429C14.3689 10.5144 13.1306 10.1885 12.6163 11.6608C14.6936 9.44937 16.0153 13.5434 12.7255 13.5434ZM32.4644 8.0003L27.4765 1.17107H29.1458L33.4872 7.26123L32.4644 8.0003ZM33.8952 6.93533L29.7664 1.17107L30.2807 1.27872L34.217 6.74328L33.8952 6.93533ZM34.6221 6.30682L30.8985 1.27872H32.4644L35.5646 5.6783L34.6221 6.30682ZM40.591 7.62684C40.6527 7.4826 40.6872 7.40191 40.6998 7.31792C40.7158 7.21151 40.6966 7.09971 40.6533 6.84628C40.6478 6.8143 40.642 6.78005 40.6358 6.74328C41.5782 6.74328 42.8998 2.64633 42.8998 2.42809C42.4697 2.78806 42.0786 3.31505 41.6815 3.85007C40.9327 4.85901 40.1626 5.89654 39.0699 5.89654C38.4622 5.55015 38.0312 5.66449 37.596 5.77995C37.3768 5.8381 37.1565 5.89654 36.9121 5.89654C36.076 4.93922 35.3519 3.79278 35.0531 2.75399C35.2399 1.7152 37.0213 0.979018 37.4264 1.3893C36.9029 3.28769 37.9653 2.72328 39.2096 2.0623C39.9525 1.6676 40.7603 1.23847 41.334 1.27872C41.3289 1.28593 41.3172 1.30148 41.3001 1.32405L41.2998 1.32448C41.0546 1.64942 39.7204 3.41741 41.334 2.75399C42.3884 1.79667 43.4371 1.71519 45.0864 1.90724C44.8082 2.07348 44.562 2.19575 44.3464 2.30285C43.7467 2.60065 43.383 2.7813 43.2245 3.46397C43.2245 6.30682 43.2245 9.44937 40.5266 7.77916C40.5507 7.72117 40.5721 7.67099 40.591 7.62684ZM39.475 6.41739C40.1662 6.14771 40.7519 5.46566 41.2794 4.85138C41.5544 4.53113 41.8136 4.2293 42.0637 4.01391C41.469 5.46007 40.5266 7.04299 39.475 6.41739ZM30.7922 8.40767C31.3036 8.0003 32.5707 8.73357 32.246 9.6647C31.9529 9.03619 31.5191 8.59972 30.7922 8.40767ZM34.4038 9.9935C33.8707 9.90082 34.1261 10.4092 34.4824 11.1187C34.9539 12.0575 35.6023 13.3483 34.8348 14.0643C33.7162 13.2169 33.1086 13.2153 32.6202 13.214C31.8491 13.2119 31.3747 13.2107 29.6544 9.88293C29.0014 10.3859 29.3965 10.7936 29.8587 11.2704C30.3483 11.7756 30.9132 12.3584 30.387 13.2146C29.8355 12.7903 29.3568 12.4709 28.9265 12.1838C28.3032 11.7679 27.7815 11.4197 27.2869 10.9188C27.2869 8.73357 30.0624 8.10797 31.5191 9.55122C31.5401 9.58323 31.5746 9.63906 31.6207 9.71363L31.6216 9.71501L31.6217 9.71524C32.0502 10.4084 33.471 12.7065 34.3262 12.5832C34.1834 12.2955 33.9284 11.9906 33.6612 11.6709C32.966 10.8395 32.1877 9.9084 33.0821 8.92271C34.3168 7.7456 35.5035 9.6078 36.5249 11.2105C37.0436 12.0246 37.5197 12.7717 37.9378 13.0197C38.1598 11.9958 36.3021 9.8484 35.3603 8.75976C35.0468 8.39736 34.8348 8.15229 34.8348 8.10505C36.0018 6.91 37.0591 8.40697 38.1356 9.93115C39.447 11.7878 40.7869 13.6849 42.3884 10.8053C40.8979 12.1467 40.3103 11.3539 39.4549 10.1997C38.6366 9.09561 37.5732 7.66084 35.2399 7.44745C36.076 6.301 39.3945 6.10895 39.7997 7.36598C39.3945 7.2554 38.7768 7.36597 38.4521 7.77334C38.4738 7.79527 38.6241 7.82528 38.8517 7.8707C39.7415 8.04832 41.8117 8.46155 41.9833 9.54831C41.3311 9.33007 40.8455 9.33007 40.4145 9.54831C41.3956 10.5402 42.3165 10.1 43.1547 9.69932C43.8165 9.383 44.4267 9.09131 44.9743 9.54831C44.3476 9.87862 43.9503 10.6452 43.5509 11.416C42.6942 13.0694 41.8275 14.742 38.6647 12.17C38.2856 12.3072 38.5274 12.5563 38.8851 12.9249C39.3162 13.3691 39.9159 13.987 39.7997 14.7917C39.2854 14.3675 38.8289 14.2711 38.3616 14.1724C37.3354 13.9558 36.2576 13.7283 34.4038 9.9935ZM37.7482 26.0264V23.9226C38.4521 24.5511 40.8484 26.1078 41.5782 25.8052C42.0773 25.6519 42.0725 25.4971 42.0563 24.9764C42.0498 24.7658 42.0414 24.4953 42.0637 24.1408C41.9822 24.162 41.8792 24.1991 41.7587 24.2426C40.8004 24.5887 38.7319 25.3355 37.5068 21.6006L37.6419 17.8324C38.5584 17.9372 39.0699 18.1583 39.61 18.4609C39.61 18.8895 39.5923 19.2783 39.5763 19.6285C39.5137 20.9978 39.4781 21.7781 40.6358 22.04C41.8446 22.2093 41.8838 21.3946 41.9571 19.8713C41.9657 19.693 41.9747 19.505 41.9862 19.3077L43.7359 20.1544V27.0652C43.9438 29.1701 42.2054 28.2411 40.2653 27.2043C39.4161 26.7506 38.5284 26.2762 37.7482 26.0264ZM12.7255 24.6326L12.803 16.5725C13.8575 16.3543 16.9577 15.944 17.9805 15.944V17.3087L14.7741 17.8295L14.8804 24.1379L14.8459 24.1426C14.2353 24.2264 13.4389 24.3356 12.7255 24.6326ZM2.26411 29.7654V20.3436C2.88185 19.9333 3.71796 19.4183 4.55406 19.3077L6.71183 22.5579L8.57367 17.8324C8.67998 17.751 9.92121 17.3116 10.8665 17.0119L10.9441 25.1796C10.8092 25.2209 10.6601 25.2637 10.503 25.3088C9.94028 25.4704 9.2743 25.6617 8.78917 25.9187V20.5647L6.70896 26.4366L4.33857 22.6685V28.2116C3.71796 28.5084 2.88185 29.0554 2.26411 29.7654ZM20.6555 45.4637L16.044 44.9748L16.0153 47.2677L11.3204 46.4501V44.1863L6.821 42.8798V45.2222C5.76941 45.0068 3.28984 43.9448 2.1578 42.9874V34.712C11.3779 43.2813 34.3262 43.066 43.6325 34.9274V42.9583C43.3078 43.4996 39.6933 44.9486 39.0727 45.164V42.8449L34.4066 44.2387V46.5345L29.7693 47.3841V45.0621L25.3216 45.4666V47.6809H20.6555V45.4637Z" fill="white"/>
<path d="M16.1336 7.44247C16.1374 7.4792 16.1442 7.51686 16.1526 7.55527C16.1454 7.518 16.1391 7.4804 16.1336 7.44247Z" fill="white"/>
</svg>
